<svg xmlns="http://www.w3.org/2000/svg" xmlns:xlink="http://www.w3.org/1999/xlink" width="500" zoomAndPan="magnify" viewBox="0 0 375 374.999991" height="500" preserveAspectRatio="xMidYMid meet" version="1.0"><defs><g/><clipPath id="fae1bd3f35"><path d="M 71.769531 117.796875 L 179 117.796875 L 179 240.796875 L 71.769531 240.796875 Z M 71.769531 117.796875 " clip-rule="nonzero"/></clipPath><clipPath id="6ff7cf8ecd"><path d="M 187.5 187.5 L 274.5 187.5 L 274.5 272 L 187.5 272 Z M 187.5 187.5 " clip-rule="nonzero"/></clipPath><clipPath id="a031bf9f7c"><path d="M 221 208 L 274.5 208 L 274.5 286.5 L 221 286.5 Z M 221 208 " clip-rule="nonzero"/></clipPath></defs><rect x="-37.5" width="450" fill="#ffffff" y="-37.499999" height="449.999989" fill-opacity="1"/><rect x="-37.5" width="450" fill="#000000" y="-37.499999" height="449.999989" fill-opacity="1"/><g clip-path="url(#fae1bd3f35)"><path fill="#3e5368" d="M 157.550781 200.679688 C 156.371094 200.679688 155.378906 201.464844 154.996094 202.582031 C 151.257812 213.414062 140.804688 219.394531 127.34375 219.394531 C 107.726562 219.394531 95.863281 204.566406 95.863281 179.25 C 95.863281 154.015625 107.726562 139.1875 127.261719 139.1875 C 141.035156 139.1875 151.71875 146.347656 155.230469 158.554688 C 155.570312 159.730469 156.59375 160.574219 157.816406 160.574219 C 157.816406 160.574219 172.613281 160.582031 177.40625 160.574219 C 178.210938 160.574219 178.839844 159.863281 178.738281 159.066406 C 175.601562 135.097656 154.085938 117.796875 127.261719 117.796875 C 93.050781 117.796875 71.796875 141.375 71.796875 179.332031 C 71.796875 217.234375 93.082031 240.785156 127.34375 240.785156 C 154.261719 240.785156 174.867188 225.320312 178.730469 202.246094 C 178.867188 201.433594 178.230469 200.683594 177.40625 200.679688 Z M 157.550781 200.679688 " fill-opacity="1" fill-rule="nonzero"/></g><g clip-path="url(#6ff7cf8ecd)"><path fill="#88bf47" d="M 274.464844 187.5 L 274.464844 207.296875 L 206.109375 207.214844 L 206.109375 271.417969 L 187.535156 271.417969 L 187.535156 187.5 Z M 242.855469 229.960938 C 242.613281 228.695312 242.109375 227.414062 241.363281 226.128906 C 240.621094 224.824219 239.472656 223.742188 237.921875 222.859375 C 236.390625 221.976562 234.3125 221.535156 231.695312 221.535156 L 221.019531 221.535156 L 221.019531 244.242188 L 231.59375 244.242188 C 233.851562 244.242188 235.746094 243.839844 237.253906 243.058594 C 238.765625 242.273438 239.933594 241.292969 240.800781 240.089844 C 240.941406 239.886719 241.0625 239.707031 241.203125 239.507812 C 241.847656 238.484375 242.332031 237.441406 242.652344 236.359375 C 243.035156 235.054688 243.21875 233.929688 243.21875 232.988281 C 243.21875 232.246094 243.097656 231.222656 242.855469 229.960938 Z M 242.855469 229.960938 " fill-opacity="1" fill-rule="nonzero"/></g><g clip-path="url(#a031bf9f7c)"><path fill="#3e5368" d="M 240.71875 208.738281 C 242.191406 209.179688 243.5625 209.703125 244.871094 210.324219 C 249.179688 212.410156 252.464844 215.339844 254.742188 219.128906 C 256.996094 222.921875 258.125 227.394531 258.125 232.585938 C 258.125 235.65625 257.664062 238.746094 256.734375 241.855469 C 255.808594 244.960938 254.339844 247.769531 252.324219 250.296875 C 250.308594 252.824219 247.589844 254.851562 244.207031 256.375 C 240.820312 257.917969 236.652344 258.679688 231.714844 258.679688 L 221.039062 258.679688 L 221.039062 286.5 L 274.464844 286.5 L 274.464844 215.71875 Z M 240.71875 208.738281 " fill-opacity="1" fill-rule="nonzero"/><path fill="#2a3f51" d="M 240.699219 208.738281 C 242.171875 209.179688 243.539062 209.703125 244.851562 210.324219 C 249.160156 212.410156 252.445312 215.339844 254.722656 219.128906 C 256.976562 222.921875 258.105469 227.394531 258.105469 232.585938 L 258.105469 233.308594 C 258.046875 236.136719 257.582031 238.984375 256.734375 241.855469 C 255.808594 244.960938 254.339844 247.769531 252.324219 250.296875 C 250.308594 252.824219 247.589844 254.851562 244.207031 256.375 C 240.820312 257.917969 236.652344 258.679688 231.714844 258.679688 L 221.039062 258.679688 L 258.125 286.398438 L 258.246094 286.5 L 274.464844 286.5 L 274.464844 215.71875 Z M 240.699219 208.738281 " fill-opacity="1" fill-rule="nonzero"/></g><path fill="#5ea000" d="M 243.21875 232.988281 C 243.21875 233.953125 243.035156 235.074219 242.652344 236.359375 C 242.332031 237.441406 241.847656 238.503906 241.203125 239.507812 L 221.019531 221.515625 L 231.695312 221.515625 C 234.292969 221.515625 236.367188 221.957031 237.921875 222.839844 C 239.472656 223.722656 240.597656 224.824219 241.363281 226.109375 C 242.109375 227.414062 242.613281 228.675781 242.855469 229.941406 C 243.097656 231.222656 243.21875 232.246094 243.21875 232.988281 Z M 243.21875 232.988281 " fill-opacity="1" fill-rule="nonzero"/><g fill="#ffffff" fill-opacity="1"><g transform="translate(114.700145, 328.342957)"><g><path d="M 0.859375 -9.1875 C 0.859375 -11 1.25 -12.613281 2.03125 -14.03125 C 2.820312 -15.445312 3.914062 -16.550781 5.3125 -17.34375 C 6.71875 -18.132812 8.304688 -18.53125 10.078125 -18.53125 C 12.253906 -18.53125 14.113281 -17.957031 15.65625 -16.8125 C 17.207031 -15.664062 18.242188 -14.097656 18.765625 -12.109375 L 13.859375 -12.109375 C 13.492188 -12.878906 12.976562 -13.460938 12.3125 -13.859375 C 11.644531 -14.265625 10.882812 -14.46875 10.03125 -14.46875 C 8.65625 -14.46875 7.539062 -13.988281 6.6875 -13.03125 C 5.832031 -12.070312 5.40625 -10.789062 5.40625 -9.1875 C 5.40625 -7.582031 5.832031 -6.300781 6.6875 -5.34375 C 7.539062 -4.394531 8.65625 -3.921875 10.03125 -3.921875 C 10.882812 -3.921875 11.644531 -4.117188 12.3125 -4.515625 C 12.976562 -4.921875 13.492188 -5.503906 13.859375 -6.265625 L 18.765625 -6.265625 C 18.242188 -4.285156 17.207031 -2.722656 15.65625 -1.578125 C 14.113281 -0.441406 12.253906 0.125 10.078125 0.125 C 8.304688 0.125 6.71875 -0.269531 5.3125 -1.0625 C 3.914062 -1.851562 2.820312 -2.953125 2.03125 -4.359375 C 1.25 -5.765625 0.859375 -7.375 0.859375 -9.1875 Z M 0.859375 -9.1875 "/></g></g></g><g fill="#ffffff" fill-opacity="1"><g transform="translate(134.597315, 328.342957)"><g><path d="M 15.59375 -12.421875 C 15.59375 -11.359375 15.347656 -10.390625 14.859375 -9.515625 C 14.367188 -8.640625 13.617188 -7.929688 12.609375 -7.390625 C 11.597656 -6.847656 10.34375 -6.578125 8.84375 -6.578125 L 6.078125 -6.578125 L 6.078125 0 L 1.625 0 L 1.625 -18.328125 L 8.84375 -18.328125 C 10.3125 -18.328125 11.550781 -18.070312 12.5625 -17.5625 C 13.570312 -17.0625 14.328125 -16.367188 14.828125 -15.484375 C 15.335938 -14.597656 15.59375 -13.578125 15.59375 -12.421875 Z M 8.515625 -10.125 C 9.367188 -10.125 10.003906 -10.320312 10.421875 -10.71875 C 10.835938 -11.125 11.046875 -11.691406 11.046875 -12.421875 C 11.046875 -13.160156 10.835938 -13.726562 10.421875 -14.125 C 10.003906 -14.519531 9.367188 -14.71875 8.515625 -14.71875 L 6.078125 -14.71875 L 6.078125 -10.125 Z M 8.515625 -10.125 "/></g></g></g><g fill="#ffffff" fill-opacity="1"><g transform="translate(150.891062, 328.342957)"><g/></g></g><g fill="#ffffff" fill-opacity="1"><g transform="translate(156.426755, 328.342957)"><g><path d="M 0.859375 -9.1875 C 0.859375 -11 1.25 -12.613281 2.03125 -14.03125 C 2.820312 -15.445312 3.914062 -16.550781 5.3125 -17.34375 C 6.71875 -18.132812 8.304688 -18.53125 10.078125 -18.53125 C 12.253906 -18.53125 14.113281 -17.957031 15.65625 -16.8125 C 17.207031 -15.664062 18.242188 -14.097656 18.765625 -12.109375 L 13.859375 -12.109375 C 13.492188 -12.878906 12.976562 -13.460938 12.3125 -13.859375 C 11.644531 -14.265625 10.882812 -14.46875 10.03125 -14.46875 C 8.65625 -14.46875 7.539062 -13.988281 6.6875 -13.03125 C 5.832031 -12.070312 5.40625 -10.789062 5.40625 -9.1875 C 5.40625 -7.582031 5.832031 -6.300781 6.6875 -5.34375 C 7.539062 -4.394531 8.65625 -3.921875 10.03125 -3.921875 C 10.882812 -3.921875 11.644531 -4.117188 12.3125 -4.515625 C 12.976562 -4.921875 13.492188 -5.503906 13.859375 -6.265625 L 18.765625 -6.265625 C 18.242188 -4.285156 17.207031 -2.722656 15.65625 -1.578125 C 14.113281 -0.441406 12.253906 0.125 10.078125 0.125 C 8.304688 0.125 6.71875 -0.269531 5.3125 -1.0625 C 3.914062 -1.851562 2.820312 -2.953125 2.03125 -4.359375 C 1.25 -5.765625 0.859375 -7.375 0.859375 -9.1875 Z M 0.859375 -9.1875 "/></g></g></g><g fill="#ffffff" fill-opacity="1"><g transform="translate(176.323925, 328.342957)"><g><path d="M 17.5 -18.328125 L 17.5 0 L 13.03125 0 L 13.03125 -7.546875 L 6.078125 -7.546875 L 6.078125 0 L 1.625 0 L 1.625 -18.328125 L 6.078125 -18.328125 L 6.078125 -11.15625 L 13.03125 -11.15625 L 13.03125 -18.328125 Z M 17.5 -18.328125 "/></g></g></g><g fill="#ffffff" fill-opacity="1"><g transform="translate(195.411627, 328.342957)"><g><path d="M 6.078125 -14.75 L 6.078125 -11.046875 L 12.0625 -11.046875 L 12.0625 -7.59375 L 6.078125 -7.59375 L 6.078125 -3.578125 L 12.84375 -3.578125 L 12.84375 0 L 1.625 0 L 1.625 -18.328125 L 12.84375 -18.328125 L 12.84375 -14.75 Z M 6.078125 -14.75 "/></g></g></g><g fill="#ffffff" fill-opacity="1"><g transform="translate(209.538096, 328.342957)"><g><path d="M 13.03125 -3.234375 L 6.1875 -3.234375 L 5.09375 0 L 0.421875 0 L 7.046875 -18.328125 L 12.21875 -18.328125 L 18.84375 0 L 14.125 0 Z M 11.875 -6.6875 L 9.609375 -13.390625 L 7.359375 -6.6875 Z M 11.875 -6.6875 "/></g></g></g><g fill="#ffffff" fill-opacity="1"><g transform="translate(228.782469, 328.342957)"><g><path d="M 14.796875 -18.328125 L 14.796875 -14.75 L 9.953125 -14.75 L 9.953125 0 L 5.484375 0 L 5.484375 -14.75 L 0.625 -14.75 L 0.625 -18.328125 Z M 14.796875 -18.328125 "/></g></g></g><g fill="#ffffff" fill-opacity="1"><g transform="translate(244.21453, 328.342957)"><g><path d="M 8.25 0.1875 C 6.90625 0.1875 5.703125 -0.03125 4.640625 -0.46875 C 3.585938 -0.90625 2.742188 -1.550781 2.109375 -2.40625 C 1.472656 -3.257812 1.132812 -4.285156 1.09375 -5.484375 L 5.84375 -5.484375 C 5.914062 -4.804688 6.148438 -4.285156 6.546875 -3.921875 C 6.953125 -3.566406 7.476562 -3.390625 8.125 -3.390625 C 8.78125 -3.390625 9.300781 -3.539062 9.6875 -3.84375 C 10.070312 -4.15625 10.265625 -4.582031 10.265625 -5.125 C 10.265625 -5.570312 10.109375 -5.941406 9.796875 -6.234375 C 9.492188 -6.535156 9.117188 -6.78125 8.671875 -6.96875 C 8.234375 -7.164062 7.601562 -7.382812 6.78125 -7.625 C 5.601562 -7.988281 4.640625 -8.351562 3.890625 -8.71875 C 3.140625 -9.082031 2.492188 -9.617188 1.953125 -10.328125 C 1.421875 -11.046875 1.15625 -11.984375 1.15625 -13.140625 C 1.15625 -14.835938 1.769531 -16.171875 3 -17.140625 C 4.238281 -18.109375 5.847656 -18.59375 7.828125 -18.59375 C 9.847656 -18.59375 11.472656 -18.109375 12.703125 -17.140625 C 13.941406 -16.171875 14.609375 -14.828125 14.703125 -13.109375 L 9.875 -13.109375 C 9.832031 -13.703125 9.609375 -14.164062 9.203125 -14.5 C 8.804688 -14.84375 8.296875 -15.015625 7.671875 -15.015625 C 7.128906 -15.015625 6.691406 -14.867188 6.359375 -14.578125 C 6.035156 -14.296875 5.875 -13.882812 5.875 -13.34375 C 5.875 -12.75 6.148438 -12.285156 6.703125 -11.953125 C 7.265625 -11.628906 8.140625 -11.273438 9.328125 -10.890625 C 10.503906 -10.484375 11.460938 -10.097656 12.203125 -9.734375 C 12.941406 -9.367188 13.582031 -8.835938 14.125 -8.140625 C 14.664062 -7.453125 14.9375 -6.554688 14.9375 -5.453125 C 14.9375 -4.410156 14.671875 -3.460938 14.140625 -2.609375 C 13.609375 -1.753906 12.835938 -1.070312 11.828125 -0.5625 C 10.816406 -0.0625 9.625 0.1875 8.25 0.1875 Z M 8.25 0.1875 "/></g></g></g></svg>